<?xml version="1.0" standalone="no"?>
<!DOCTYPE svg PUBLIC "-//W3C//DTD SVG 20010904//EN"
 "http://www.w3.org/TR/2001/REC-SVG-20010904/DTD/svg10.dtd">
<svg version="1.0" xmlns="http://www.w3.org/2000/svg"
 width="312.000000pt" height="85.000000pt" viewBox="0 0 312.000000 85.000000"
 preserveAspectRatio="xMidYMid meet">

<g transform="translate(0.000000,85.000000) scale(0.100000,-0.100000)"
fill="#000000" stroke="none">
<path d="M570 790 c-61 -10 -113 -33 -170 -75 -84 -62 -115 -122 -207 -404
-45 -141 -83 -260 -83 -264 0 -4 46 -6 103 -5 l102 3 85 248 c124 362 117 356
427 357 l201 0 21 69 c12 38 21 72 21 75 0 9 -447 5 -500 -4z"/>
<path d="M1224 792 c-101 -3 -112 -9 -133 -71 -23 -69 -21 -71 77 -71 62 0 94
4 109 15 24 17 60 113 47 123 -5 4 -50 6 -100 4z"/>
<path d="M1530 690 c0 -103 1 -110 20 -110 17 0 20 7 20 45 l0 45 50 0 c43 0
50 3 50 20 0 17 -7 20 -50 20 -47 0 -50 2 -50 25 0 24 3 25 54 25 37 0 56 4
59 14 9 22 -2 26 -80 26 l-73 0 0 -110z"/>
<path d="M1721 714 c-44 -56 -17 -130 51 -140 51 -9 88 28 88 86 0 53 -27 80
-79 80 -31 0 -44 -6 -60 -26z m87 -16 c26 -26 11 -88 -22 -88 -41 0 -58 38
-36 81 12 21 40 25 58 7z"/>
<path d="M1880 734 c0 -3 11 -21 25 -41 l24 -37 -24 -32 c-31 -40 -31 -44 -1
-44 16 0 27 7 31 20 3 11 9 20 13 20 4 0 13 -9 20 -20 7 -11 23 -20 37 -20
l25 0 -26 40 -26 39 21 34 c26 42 26 47 1 47 -10 0 -24 -9 -30 -20 -6 -11 -15
-20 -20 -20 -5 0 -12 9 -15 20 -4 13 -15 20 -31 20 -13 0 -24 -2 -24 -6z"/>
<path d="M2060 713 c-42 -54 -7 -143 57 -143 31 0 87 53 61 58 -9 2 -27 -4
-40 -12 -13 -8 -28 -12 -34 -8 -18 12 -25 48 -15 76 12 29 32 34 51 11 14 -17
50 -20 50 -5 0 22 -41 50 -74 50 -26 0 -40 -7 -56 -27z"/>
<path d="M2230 713 c-17 -22 -21 -37 -17 -67 7 -48 23 -65 68 -72 28 -5 41 -1
62 17 25 23 31 40 28 87 -3 62 -100 86 -141 35z m89 -17 c7 -8 11 -30 9 -48
-2 -26 -8 -34 -26 -36 -44 -7 -66 34 -42 79 13 22 43 25 59 5z"/>
<path d="M2410 660 c0 -73 2 -80 20 -80 16 0 19 8 22 63 3 59 4 62 28 62 24 0
25 -3 28 -62 3 -55 6 -63 22 -63 18 0 20 7 20 68 0 40 -5 73 -12 80 -15 15
-60 16 -75 1 -8 -8 -13 -8 -17 0 -4 6 -14 11 -22 11 -11 0 -14 -17 -14 -80z"/>
<path d="M2590 660 c0 -73 2 -80 20 -80 16 0 19 8 22 56 6 104 68 96 68 -8 0
-41 3 -48 20 -48 18 0 20 7 20 58 0 69 -19 102 -59 102 -15 0 -32 -5 -39 -12
-9 -9 -12 -9 -12 0 0 7 -9 12 -20 12 -18 0 -20 -7 -20 -80z"/>
<path d="M798 593 c-12 -14 -48 -104 -48 -120 0 -2 42 -3 94 -3 84 0 98 2 119
23 14 12 32 43 40 70 l16 47 -103 0 c-86 0 -105 -3 -118 -17z"/>
<path d="M1053 593 c-2 -10 -39 -135 -82 -278 l-77 -260 104 -3 c58 -1 106 -1
108 1 2 2 37 118 78 258 40 140 76 264 80 277 7 22 7 22 -99 22 -93 0 -107 -2
-112 -17z"/>
<path d="M1530 420 c0 -103 1 -110 20 -110 19 0 20 7 20 110 0 103 -1 110 -20
110 -19 0 -20 -7 -20 -110z"/>
<path d="M1910 494 c0 -31 -3 -35 -17 -28 -26 11 -61 8 -78 -6 -31 -26 -30
-103 1 -135 18 -18 65 -20 82 -3 9 9 12 9 12 0 0 -7 9 -12 20 -12 19 0 20 7
20 110 0 103 -1 110 -20 110 -16 0 -20 -7 -20 -36z m-8 -79 c15 -33 -3 -75
-32 -75 -12 0 -25 10 -32 25 -15 33 3 75 32 75 12 0 25 -10 32 -25z"/>
<path d="M2560 515 c0 -8 9 -15 20 -15 11 0 20 7 20 15 0 8 -9 15 -20 15 -11
0 -20 -7 -20 -15z"/>
<path d="M2812 423 c3 -100 4 -108 23 -108 19 0 20 7 20 105 0 102 -1 105 -23
108 -23 3 -23 3 -20 -105z"/>
<path d="M2350 495 c0 -14 -4 -25 -10 -25 -5 0 -10 -7 -10 -15 0 -8 4 -15 10
-15 5 0 10 -28 12 -62 3 -60 4 -63 31 -66 19 -2 27 1 27 12 0 9 -4 16 -10 16
-5 0 -10 23 -10 50 0 28 5 50 10 50 6 0 10 7 10 15 0 8 -4 15 -10 15 -5 0 -10
11 -10 25 0 18 -5 25 -20 25 -15 0 -20 -7 -20 -25z"/>
<path d="M1680 470 c-8 -5 -27 -6 -44 -3 -25 5 -28 4 -23 -11 4 -10 7 -47 7
-83 0 -56 2 -64 18 -61 13 2 18 16 22 63 5 56 7 60 30 60 24 0 25 -3 28 -62 3
-55 6 -63 22 -63 18 0 20 7 20 69 0 43 -5 72 -12 79 -21 16 -52 22 -68 12z"/>
<path d="M2200 467 c-18 -9 -25 -21 -25 -42 0 -26 6 -32 45 -46 24 -9 46 -21
48 -28 5 -14 -54 -15 -63 -1 -7 12 -45 13 -45 2 0 -38 103 -57 134 -26 34 34
9 73 -56 88 -16 4 -28 11 -28 17 0 15 30 23 43 10 13 -13 47 -15 47 -2 0 28
-65 46 -100 28z"/>
<path d="M2502 464 c-12 -8 -22 -11 -22 -5 0 6 -9 11 -20 11 -18 0 -20 -7 -20
-80 0 -73 2 -80 20 -80 17 0 20 7 20 48 0 54 6 67 37 76 11 4 20 13 19 21 -3
23 -11 25 -34 9z"/>
<path d="M2670 467 c-28 -14 -40 -47 -16 -47 8 0 18 5 21 10 9 15 55 12 55 -4
0 -8 -16 -16 -40 -20 -48 -7 -70 -39 -51 -74 9 -18 20 -20 76 -20 52 1 65 4
60 16 -3 7 -5 40 -5 72 0 56 -1 58 -31 69 -39 14 -38 14 -69 -2z m60 -97 c0
-21 -27 -40 -47 -33 -21 7 -15 33 10 43 33 13 37 12 37 -10z"/>
<path d="M1990 402 c0 -74 10 -92 50 -92 14 0 31 5 38 12 9 9 12 9 12 0 0 -7
9 -12 20 -12 18 0 20 7 20 80 0 73 -2 80 -20 80 -18 0 -20 -7 -20 -54 0 -56
-17 -83 -45 -72 -11 4 -15 21 -15 66 0 53 -2 60 -20 60 -18 0 -20 -7 -20 -68z"/>
<path d="M2560 390 c0 -73 2 -80 20 -80 18 0 20 7 20 80 0 73 -2 80 -20 80
-18 0 -20 -7 -20 -80z"/>
<path d="M512 430 c-23 -10 -48 -56 -59 -111 l-5 -29 79 0 c116 0 138 10 163
76 11 30 20 59 20 64 0 13 -167 12 -198 0z"/>
<path d="M745 430 c-7 -12 -115 -370 -115 -383 0 -4 48 -6 107 -5 l106 3 57
193 c31 105 54 194 52 197 -10 10 -201 5 -207 -5z"/>
<path d="M1530 160 c0 -103 1 -110 20 -110 19 0 20 7 20 110 0 103 -1 110 -20
110 -19 0 -20 -7 -20 -110z"/>
<path d="M1810 234 c0 -9 -8 -23 -17 -30 -17 -13 -17 -15 0 -25 13 -8 17 -23
17 -68 0 -44 4 -60 16 -65 27 -10 44 -7 44 9 0 8 -4 15 -10 15 -15 0 -13 107
3 113 10 4 10 7 0 18 -7 7 -13 21 -13 31 0 11 -7 18 -20 18 -12 0 -20 -7 -20
-16z"/>
<path d="M2560 234 c0 -9 -8 -23 -17 -30 -17 -13 -17 -15 0 -25 13 -8 17 -23
17 -68 0 -44 4 -60 16 -65 41 -16 58 2 29 30 -8 9 -15 33 -15 55 0 26 5 42 15
45 20 8 19 34 0 34 -9 0 -15 7 -13 17 2 10 -4 19 -14 21 -12 2 -18 -3 -18 -14z"/>
<path d="M1617 203 c-3 -5 -3 -21 -2 -38 2 -16 3 -51 4 -77 1 -38 4 -46 19
-44 14 2 18 15 20 64 2 44 7 62 19 66 29 11 43 -13 43 -76 0 -51 2 -59 16 -54
9 3 18 6 20 6 2 0 4 29 4 64 0 45 -5 69 -16 80 -19 19 -55 21 -73 4 -11 -10
-14 -10 -18 0 -5 13 -29 16 -36 5z"/>
<path d="M1912 187 c-22 -23 -30 -89 -14 -113 22 -34 84 -43 120 -18 41 28 15
49 -28 22 -23 -15 -53 -2 -58 26 -3 13 6 16 58 16 53 0 61 2 56 16 -3 9 -6 20
-6 25 0 5 -9 18 -20 29 -28 28 -81 26 -108 -3z m72 -13 c30 -12 18 -34 -19
-34 -37 0 -43 8 -23 28 14 14 20 14 42 6z"/>
<path d="M2074 197 c-3 -8 -4 -45 -2 -82 2 -56 6 -69 21 -71 14 -2 17 6 17 43
0 50 14 83 35 83 8 0 15 9 15 20 0 23 -10 26 -29 8 -11 -10 -14 -10 -18 0 -6
16 -32 15 -39 -1z"/>
<path d="M2190 124 c0 -76 2 -85 18 -82 13 2 18 15 20 60 3 59 20 85 47 74 11
-4 15 -21 15 -65 0 -61 7 -76 28 -62 9 5 12 30 10 77 -3 65 -4 69 -31 78 -20
7 -34 7 -47 -2 -12 -7 -21 -8 -25 -2 -3 6 -13 10 -21 10 -11 0 -14 -18 -14
-86z"/>
<path d="M2397 198 c-41 -32 -43 -116 -3 -143 31 -22 82 -19 109 8 l22 22 -24
3 c-13 2 -28 -1 -34 -7 -15 -15 -33 -14 -51 5 -25 24 -10 34 50 34 51 0 54 2
54 24 0 49 -82 84 -123 54z m71 -30 c20 -20 14 -28 -23 -28 -24 0 -35 5 -35
14 0 24 39 33 58 14z"/>
</g>
</svg>
