<?xml version="1.0" standalone="no"?>
<!DOCTYPE svg PUBLIC "-//W3C//DTD SVG 20010904//EN"
 "http://www.w3.org/TR/2001/REC-SVG-20010904/DTD/svg10.dtd">
<svg version="1.0" xmlns="http://www.w3.org/2000/svg"
 width="91.000000pt" height="91.000000pt" viewBox="0 0 91.000000 91.000000"
 preserveAspectRatio="xMidYMid meet">

<g transform="translate(0.000000,91.000000) scale(0.100000,-0.100000)"
fill="#000000" stroke="none">
<path d="M350 710 c-59 -11 -87 -23 -130 -54 -58 -44 -85 -98 -144 -281 -31
-96 -59 -181 -62 -190 -5 -13 6 -15 70 -15 42 0 76 1 76 3 0 14 125 357 136
375 35 53 67 62 230 62 l150 0 16 50 c9 27 13 52 10 54 -13 8 -306 4 -352 -4z"/>
<path d="M736 688 c-7 -13 -16 -35 -20 -50 l-6 -28 68 0 c76 0 90 9 110 68
l11 32 -74 0 c-66 0 -76 -2 -89 -22z"/>
<path d="M508 563 c-9 -10 -19 -33 -23 -50 l-7 -33 70 0 c76 0 90 9 110 68
l11 32 -73 0 c-57 0 -76 -4 -88 -17z"/>
<path d="M695 568 c-13 -38 -115 -385 -115 -392 0 -4 34 -6 77 -4 l76 3 53
180 c29 99 55 190 59 203 5 21 3 22 -70 22 -52 0 -77 -4 -80 -12z"/>
<path d="M304 450 c-20 -8 -44 -55 -44 -86 0 -17 111 -20 140 -4 16 9 40 58
40 84 0 13 -106 18 -136 6z"/>
<path d="M470 457 c0 -2 -18 -64 -40 -137 -22 -73 -40 -137 -40 -142 0 -5 34
-8 77 -6 l76 3 38 130 c21 72 39 136 39 143 0 8 -22 12 -75 12 -41 0 -75 -1
-75 -3z"/>
</g>
</svg>
